# xmcd
#
# Track frame offsets:
#	150
#	16904
#	28576
#	41138
#	58145
#	69478
#	89756
#	102132
#	114882
#	131171
#
# Disc length: 1941 seconds
#
# Revision: 0
# Processed by: cddbd v1.4PL0 Copyright (c) Steve Scherf et al.
# Submitted via: EasyCDDAExtractor 4.6.0.1
#
DISCID=8607930a
DTITLE=Chris Zalez - Hotel Texas
DYEAR=2000
DGENRE=Blues
TTITLE0=Got That Rite
TTITLE1=Shake These Blues
TTITLE2=I Don't Care
TTITLE3=Little Genie
TTITLE4=Pork Fat
TTITLE5=Your Gonna Miss Me (with Robert Ealey)
TTITLE6=All Nite Long
TTITLE7=Just Wanna Love You
TTITLE8=My Way
TTITLE9=Dripins In The Pan
EXTD=
EXTT0=
EXTT1=
EXTT2=
EXTT3=
EXTT4=
EXTT5=
EXTT6=
EXTT7=
EXTT8=
EXTT9=
PLAYORDER=
